<svg width="251" height="251" viewBox="0 0 251 251" fill="none" xmlns="http://www.w3.org/2000/svg">
<path d="M131 96.7301V81H65L109.525 126L65 171H131V154.075" stroke="#004178" stroke-width="20"/>
<path d="M243.137 107.717H223.215C222.647 104.45 221.599 101.555 220.072 99.0341C218.545 96.4773 216.646 94.3111 214.373 92.5355C212.1 90.7599 209.508 89.4283 206.596 88.5405C203.719 87.6172 200.612 87.1555 197.274 87.1555C191.344 87.1555 186.088 88.647 181.507 91.63C176.926 94.5774 173.339 98.9098 170.747 104.627C168.155 110.309 166.859 117.251 166.859 125.455C166.859 133.8 168.155 140.831 170.747 146.548C173.375 152.23 176.962 156.527 181.507 159.439C186.088 162.315 191.326 163.754 197.221 163.754C200.488 163.754 203.542 163.327 206.383 162.475C209.259 161.587 211.834 160.291 214.107 158.587C216.415 156.882 218.35 154.787 219.913 152.301C221.511 149.815 222.612 146.974 223.215 143.778L243.137 143.885C242.391 149.07 240.776 153.935 238.29 158.48C235.839 163.026 232.626 167.038 228.648 170.518C224.671 173.963 220.019 176.662 214.692 178.615C209.366 180.533 203.453 181.491 196.955 181.491C187.366 181.491 178.808 179.272 171.28 174.833C163.751 170.394 157.821 163.984 153.489 155.604C149.156 147.223 146.99 137.173 146.99 125.455C146.99 113.7 149.174 103.651 153.542 95.3054C157.91 86.9247 163.858 80.5149 171.386 76.076C178.915 71.6371 187.438 69.4176 196.955 69.4176C203.027 69.4176 208.673 70.2699 213.893 71.9744C219.114 73.679 223.766 76.1825 227.849 79.4851C231.933 82.7521 235.289 86.7649 237.917 91.5234C240.58 96.2464 242.32 101.644 243.137 107.717Z" fill="#004178"/>
<path d="M30.522 71.9091V181H10.7599V71.9091H30.522Z" fill="#004178"/>
</svg>
